<svg width="393" height="530" viewBox="0 0 393 530" fill="none" xmlns="http://www.w3.org/2000/svg">
<path fill-rule="evenodd" clip-rule="evenodd" d="M216.767 217.186L379.139 73.5779C379.124 73.5614 379.109 73.5448 379.095 73.5283C377.16 71.342 375.183 69.1976 373.167 67.0961C350.186 43.1496 321.984 24.7699 290.712 13.4214C256.674 1.06952 220.085 -2.55914 184.285 2.86676C148.484 8.29267 114.613 22.6003 85.7647 44.4832C56.916 66.3661 34.0087 95.1271 19.1342 128.14C4.25976 161.153 -2.10784 197.366 0.612799 233.473C3.33344 269.58 15.0556 304.43 34.7091 334.842C54.3626 365.253 81.3211 390.257 113.123 407.569C142.342 423.476 174.793 432.425 207.955 433.774C210.887 433.893 213.825 433.953 216.767 433.953L216.767 217.186ZM207.955 424.954L207.955 213.216L366.56 72.9388C344.56 50.092 317.594 32.5508 287.706 21.7045C255.052 9.85474 219.95 6.37359 185.605 11.5789C151.26 16.7843 118.766 30.5103 91.09 51.5036C63.414 72.497 41.4378 100.089 27.1681 131.76C12.8983 163.431 6.7895 198.172 9.39955 232.811C12.0096 267.45 23.2553 300.884 42.1098 330.059C60.9644 359.234 86.827 383.221 117.336 399.83C145.262 415.033 176.266 423.611 207.955 424.954Z" fill="white"/>
<path fill-rule="evenodd" clip-rule="evenodd" d="M176.233 313.233L13.8615 456.841C13.8761 456.858 13.8907 456.874 13.9053 456.891C15.8401 459.077 17.8166 461.222 19.8334 463.323C42.8136 487.27 71.0162 505.649 102.288 516.998C136.326 529.35 172.915 532.978 208.715 527.552C244.516 522.126 278.387 507.819 307.235 485.936C336.084 464.053 358.991 435.292 373.866 402.279C388.74 369.266 395.108 333.053 392.387 296.946C389.667 260.839 377.944 225.989 358.291 195.578C338.637 165.166 311.679 140.163 279.877 122.85C250.658 106.943 218.207 97.9944 185.045 96.6454C182.113 96.5261 179.175 96.4662 176.233 96.4662L176.233 313.233ZM185.045 105.465L185.045 317.203L26.4396 457.48C48.4403 480.327 75.4059 497.868 105.294 508.715C137.948 520.564 173.05 524.046 207.395 518.84C241.74 513.635 274.234 499.909 301.91 478.915C329.586 457.922 351.562 430.33 365.832 398.659C380.102 366.988 386.21 332.247 383.6 297.608C380.99 262.969 369.745 229.535 350.89 200.36C332.036 171.185 306.173 147.198 275.664 130.589C247.738 115.386 216.734 106.808 185.045 105.465Z" fill="white"/>
</svg>
