<svg width="608" height="517" viewBox="0 0 608 517" fill="none" xmlns="http://www.w3.org/2000/svg">
<path fill-rule="evenodd" clip-rule="evenodd" d="M400.544 454.044L243.512 35.7205C230.852 1.99535 183.148 1.99534 170.488 35.7205L13.4555 454.044C3.88385 479.542 22.7321 506.75 49.9678 506.75H364.032C391.268 506.75 410.116 479.542 400.544 454.044ZM252.874 32.2062C236.968 -10.1665 177.032 -10.1666 161.126 32.2061L4.09341 450.529C-7.93253 482.566 15.7486 516.75 49.9678 516.75H364.032C398.251 516.75 421.932 482.566 409.906 450.53L252.874 32.2062Z" fill="white"/>
<path fill-rule="evenodd" clip-rule="evenodd" d="M594.544 454.044L437.512 35.7205C424.852 1.99535 377.148 1.99534 364.488 35.7205L207.456 454.044C197.884 479.542 216.732 506.75 243.968 506.75H558.032C585.268 506.75 604.116 479.542 594.544 454.044ZM446.874 32.2062C430.968 -10.1665 371.032 -10.1666 355.126 32.2061L198.093 450.529C186.067 482.566 209.749 516.75 243.968 516.75H558.032C592.251 516.75 615.932 482.566 603.906 450.53L446.874 32.2062Z" fill="white"/>
</svg>
