<svg width="664" height="566" viewBox="0 0 664 566" fill="none" xmlns="http://www.w3.org/2000/svg">
<path fill-rule="evenodd" clip-rule="evenodd" d="M428.621 478.617L271.589 60.2939C258.929 26.5687 211.224 26.5687 198.564 60.2938L41.5322 478.617C31.9605 504.116 50.8088 531.323 78.0444 531.323H392.109C419.344 531.323 438.193 504.116 428.621 478.617ZM280.951 56.7795C265.045 14.4069 205.108 14.4068 189.202 56.7794L32.1701 475.103C20.1441 507.139 43.8253 541.323 78.0444 541.323H392.109C426.328 541.323 450.009 507.139 437.983 475.103L280.951 56.7795Z" fill="white"/>
<path fill-rule="evenodd" clip-rule="evenodd" d="M622.621 478.617L465.589 60.2939C452.929 26.5687 405.224 26.5687 392.564 60.2938L235.532 478.617C225.961 504.116 244.809 531.323 272.044 531.323H586.109C613.344 531.323 632.193 504.116 622.621 478.617ZM474.951 56.7795C459.045 14.4069 399.108 14.4068 383.202 56.7794L226.17 475.103C214.144 507.139 237.825 541.323 272.044 541.323H586.109C620.328 541.323 644.009 507.139 631.983 475.103L474.951 56.7795Z" fill="white"/>
</svg>
