<svg width="664" height="566" viewBox="0 0 664 566" fill="none" xmlns="http://www.w3.org/2000/svg">
<path fill-rule="evenodd" clip-rule="evenodd" d="M351.767 234.767L514.139 91.1587C514.124 91.1422 514.109 91.1257 514.095 91.1091C512.16 88.9228 510.183 86.7784 508.167 84.6769C485.186 60.7304 456.984 42.3507 425.712 31.0022C391.674 18.6503 355.085 15.0217 319.285 20.4476C283.484 25.8735 249.613 40.1811 220.765 62.064C191.916 83.9469 169.009 112.708 154.134 145.721C139.26 178.734 132.892 214.947 135.613 251.054C138.333 287.161 150.056 322.011 169.709 352.422C189.363 382.834 216.321 407.837 248.123 425.15C277.342 441.057 309.793 450.006 342.955 451.355C345.887 451.474 348.825 451.534 351.767 451.534L351.767 234.767ZM342.955 442.535L342.955 230.797L501.56 90.5197C479.56 67.6728 452.594 50.1316 422.706 39.2854C390.052 27.4356 354.95 23.9544 320.605 29.1597C286.26 34.3651 253.766 48.0911 226.09 69.0844C198.414 90.0778 176.438 117.67 162.168 149.341C147.898 181.012 141.79 215.753 144.4 250.392C147.01 285.031 158.255 318.465 177.11 347.64C195.964 376.815 221.827 400.802 252.336 417.411C280.262 432.614 311.266 441.191 342.955 442.535Z" fill="white"/>
<path fill-rule="evenodd" clip-rule="evenodd" d="M311.233 330.814L148.861 474.422C148.876 474.439 148.891 474.455 148.905 474.472C150.84 476.658 152.817 478.802 154.833 480.904C177.814 504.85 206.016 523.23 237.288 534.579C271.326 546.93 307.915 550.559 343.715 545.133C379.516 539.707 413.387 525.4 442.235 503.517C471.084 481.634 493.991 452.873 508.866 419.86C523.74 386.847 530.108 350.634 527.387 314.527C524.667 278.42 512.944 243.57 493.291 213.158C473.637 182.747 446.679 157.743 414.877 140.43C385.658 124.524 353.207 115.575 320.045 114.226C317.113 114.107 314.175 114.047 311.233 114.047L311.233 330.814ZM320.045 123.045L320.045 334.784L161.44 475.061C183.44 497.908 210.406 515.449 240.294 526.295C272.948 538.145 308.05 541.626 342.395 536.421C376.74 531.216 409.234 517.49 436.91 496.496C464.586 475.503 486.562 447.911 500.832 416.24C515.102 384.569 521.21 349.828 518.6 315.189C515.99 280.55 504.745 247.116 485.89 217.941C467.036 188.766 441.173 164.779 410.664 148.17C382.738 132.967 351.734 124.389 320.045 123.045Z" fill="white"/>
</svg>
